<?xml version="1.0" encoding="utf-8" standalone="no"?>
<!DOCTYPE svg PUBLIC "-//W3C//DTD SVG 1.1//EN"
  "http://www.w3.org/Graphics/SVG/1.1/DTD/svg11.dtd">
<!-- Created with matplotlib (https://matplotlib.org/) -->
<svg height="345.6pt" version="1.1" viewBox="0 0 460.8 345.6" width="460.8pt" xmlns="http://www.w3.org/2000/svg" xmlns:xlink="http://www.w3.org/1999/xlink">
 <metadata>
  <rdf:RDF xmlns:cc="http://creativecommons.org/ns#" xmlns:dc="http://purl.org/dc/elements/1.1/" xmlns:rdf="http://www.w3.org/1999/02/22-rdf-syntax-ns#">
   <cc:Work>
    <dc:type rdf:resource="http://purl.org/dc/dcmitype/StillImage"/>
    <dc:date>2021-07-12T14:22:39.565544</dc:date>
    <dc:format>image/svg+xml</dc:format>
    <dc:creator>
     <cc:Agent>
      <dc:title>Matplotlib v3.3.4, https://matplotlib.org/</dc:title>
     </cc:Agent>
    </dc:creator>
   </cc:Work>
  </rdf:RDF>
 </metadata>
 <defs>
  <style type="text/css">*{stroke-linecap:butt;stroke-linejoin:round;}</style>
 </defs>
 <g id="figure_1">
  <g id="patch_1">
   <path d="M 0 345.6 
L 460.8 345.6 
L 460.8 0 
L 0 0 
z
" style="fill:#ffffff;"/>
  </g>
  <g id="axes_1">
   <g id="patch_2">
    <path d="M 57.6 307.584 
L 414.72 307.584 
L 414.72 41.472 
L 57.6 41.472 
z
" style="fill:#ffffff;"/>
   </g>
   <g id="matplotlib.axis_1">
    <g id="xtick_1">
     <g id="line2d_1">
      <defs>
       <path d="M 0 0 
L 0 3.5 
" id="m2d2ea59a18" style="stroke:#000000;stroke-width:0.8;"/>
      </defs>
      <g>
       <use style="stroke:#000000;stroke-width:0.8;" x="73.832727" xlink:href="#m2d2ea59a18" y="307.584"/>
      </g>
     </g>
     <g id="text_1">
      <!-- 0 -->
      <g transform="translate(70.651477 322.182437)scale(0.1 -0.1)">
       <defs>
        <path d="M 31.78125 66.40625 
Q 24.171875 66.40625 20.328125 58.90625 
Q 16.5 51.421875 16.5 36.375 
Q 16.5 21.390625 20.328125 13.890625 
Q 24.171875 6.390625 31.78125 6.390625 
Q 39.453125 6.390625 43.28125 13.890625 
Q 47.125 21.390625 47.125 36.375 
Q 47.125 51.421875 43.28125 58.90625 
Q 39.453125 66.40625 31.78125 66.40625 
z
M 31.78125 74.21875 
Q 44.046875 74.21875 50.515625 64.515625 
Q 56.984375 54.828125 56.984375 36.375 
Q 56.984375 17.96875 50.515625 8.265625 
Q 44.046875 -1.421875 31.78125 -1.421875 
Q 19.53125 -1.421875 13.0625 8.265625 
Q 6.59375 17.96875 6.59375 36.375 
Q 6.59375 54.828125 13.0625 64.515625 
Q 19.53125 74.21875 31.78125 74.21875 
z
" id="DejaVuSans-48"/>
       </defs>
       <use xlink:href="#DejaVuSans-48"/>
      </g>
     </g>
    </g>
    <g id="xtick_2">
     <g id="line2d_2">
      <g>
       <use style="stroke:#000000;stroke-width:0.8;" x="118.948701" xlink:href="#m2d2ea59a18" y="307.584"/>
      </g>
     </g>
     <g id="text_2">
      <!-- 250 -->
      <g transform="translate(109.404951 322.182437)scale(0.1 -0.1)">
       <defs>
        <path d="M 19.1875 8.296875 
L 53.609375 8.296875 
L 53.609375 0 
L 7.328125 0 
L 7.328125 8.296875 
Q 12.9375 14.109375 22.625 23.890625 
Q 32.328125 33.6875 34.8125 36.53125 
Q 39.546875 41.84375 41.421875 45.53125 
Q 43.3125 49.21875 43.3125 52.78125 
Q 43.3125 58.59375 39.234375 62.25 
Q 35.15625 65.921875 28.609375 65.921875 
Q 23.96875 65.921875 18.8125 64.3125 
Q 13.671875 62.703125 7.8125 59.421875 
L 7.8125 69.390625 
Q 13.765625 71.78125 18.9375 73 
Q 24.125 74.21875 28.421875 74.21875 
Q 39.75 74.21875 46.484375 68.546875 
Q 53.21875 62.890625 53.21875 53.421875 
Q 53.21875 48.921875 51.53125 44.890625 
Q 49.859375 40.875 45.40625 35.40625 
Q 44.1875 33.984375 37.640625 27.21875 
Q 31.109375 20.453125 19.1875 8.296875 
z
" id="DejaVuSans-50"/>
        <path d="M 10.796875 72.90625 
L 49.515625 72.90625 
L 49.515625 64.59375 
L 19.828125 64.59375 
L 19.828125 46.734375 
Q 21.96875 47.46875 24.109375 47.828125 
Q 26.265625 48.1875 28.421875 48.1875 
Q 40.625 48.1875 47.75 41.5 
Q 54.890625 34.8125 54.890625 23.390625 
Q 54.890625 11.625 47.5625 5.09375 
Q 40.234375 -1.421875 26.90625 -1.421875 
Q 22.3125 -1.421875 17.546875 -0.640625 
Q 12.796875 0.140625 7.71875 1.703125 
L 7.71875 11.625 
Q 12.109375 9.234375 16.796875 8.0625 
Q 21.484375 6.890625 26.703125 6.890625 
Q 35.15625 6.890625 40.078125 11.328125 
Q 45.015625 15.765625 45.015625 23.390625 
Q 45.015625 31 40.078125 35.4375 
Q 35.15625 39.890625 26.703125 39.890625 
Q 22.75 39.890625 18.8125 39.015625 
Q 14.890625 38.140625 10.796875 36.28125 
z
" id="DejaVuSans-53"/>
       </defs>
       <use xlink:href="#DejaVuSans-50"/>
       <use x="63.623047" xlink:href="#DejaVuSans-53"/>
       <use x="127.246094" xlink:href="#DejaVuSans-48"/>
      </g>
     </g>
    </g>
    <g id="xtick_3">
     <g id="line2d_3">
      <g>
       <use style="stroke:#000000;stroke-width:0.8;" x="164.064674" xlink:href="#m2d2ea59a18" y="307.584"/>
      </g>
     </g>
     <g id="text_3">
      <!-- 500 -->
      <g transform="translate(154.520924 322.182437)scale(0.1 -0.1)">
       <use xlink:href="#DejaVuSans-53"/>
       <use x="63.623047" xlink:href="#DejaVuSans-48"/>
       <use x="127.246094" xlink:href="#DejaVuSans-48"/>
      </g>
     </g>
    </g>
    <g id="xtick_4">
     <g id="line2d_4">
      <g>
       <use style="stroke:#000000;stroke-width:0.8;" x="209.180648" xlink:href="#m2d2ea59a18" y="307.584"/>
      </g>
     </g>
     <g id="text_4">
      <!-- 750 -->
      <g transform="translate(199.636898 322.182437)scale(0.1 -0.1)">
       <defs>
        <path d="M 8.203125 72.90625 
L 55.078125 72.90625 
L 55.078125 68.703125 
L 28.609375 0 
L 18.3125 0 
L 43.21875 64.59375 
L 8.203125 64.59375 
z
" id="DejaVuSans-55"/>
       </defs>
       <use xlink:href="#DejaVuSans-55"/>
       <use x="63.623047" xlink:href="#DejaVuSans-53"/>
       <use x="127.246094" xlink:href="#DejaVuSans-48"/>
      </g>
     </g>
    </g>
    <g id="xtick_5">
     <g id="line2d_5">
      <g>
       <use style="stroke:#000000;stroke-width:0.8;" x="254.296621" xlink:href="#m2d2ea59a18" y="307.584"/>
      </g>
     </g>
     <g id="text_5">
      <!-- 1000 -->
      <g transform="translate(241.571621 322.182437)scale(0.1 -0.1)">
       <defs>
        <path d="M 12.40625 8.296875 
L 28.515625 8.296875 
L 28.515625 63.921875 
L 10.984375 60.40625 
L 10.984375 69.390625 
L 28.421875 72.90625 
L 38.28125 72.90625 
L 38.28125 8.296875 
L 54.390625 8.296875 
L 54.390625 0 
L 12.40625 0 
z
" id="DejaVuSans-49"/>
       </defs>
       <use xlink:href="#DejaVuSans-49"/>
       <use x="63.623047" xlink:href="#DejaVuSans-48"/>
       <use x="127.246094" xlink:href="#DejaVuSans-48"/>
       <use x="190.869141" xlink:href="#DejaVuSans-48"/>
      </g>
     </g>
    </g>
    <g id="xtick_6">
     <g id="line2d_6">
      <g>
       <use style="stroke:#000000;stroke-width:0.8;" x="299.412595" xlink:href="#m2d2ea59a18" y="307.584"/>
      </g>
     </g>
     <g id="text_6">
      <!-- 1250 -->
      <g transform="translate(286.687595 322.182437)scale(0.1 -0.1)">
       <use xlink:href="#DejaVuSans-49"/>
       <use x="63.623047" xlink:href="#DejaVuSans-50"/>
       <use x="127.246094" xlink:href="#DejaVuSans-53"/>
       <use x="190.869141" xlink:href="#DejaVuSans-48"/>
      </g>
     </g>
    </g>
    <g id="xtick_7">
     <g id="line2d_7">
      <g>
       <use style="stroke:#000000;stroke-width:0.8;" x="344.528568" xlink:href="#m2d2ea59a18" y="307.584"/>
      </g>
     </g>
     <g id="text_7">
      <!-- 1500 -->
      <g transform="translate(331.803568 322.182437)scale(0.1 -0.1)">
       <use xlink:href="#DejaVuSans-49"/>
       <use x="63.623047" xlink:href="#DejaVuSans-53"/>
       <use x="127.246094" xlink:href="#DejaVuSans-48"/>
       <use x="190.869141" xlink:href="#DejaVuSans-48"/>
      </g>
     </g>
    </g>
    <g id="xtick_8">
     <g id="line2d_8">
      <g>
       <use style="stroke:#000000;stroke-width:0.8;" x="389.644542" xlink:href="#m2d2ea59a18" y="307.584"/>
      </g>
     </g>
     <g id="text_8">
      <!-- 1750 -->
      <g transform="translate(376.919542 322.182437)scale(0.1 -0.1)">
       <use xlink:href="#DejaVuSans-49"/>
       <use x="63.623047" xlink:href="#DejaVuSans-55"/>
       <use x="127.246094" xlink:href="#DejaVuSans-53"/>
       <use x="190.869141" xlink:href="#DejaVuSans-48"/>
      </g>
     </g>
    </g>
    <g id="text_9">
     <!-- Episode # -->
     <g transform="translate(210.743594 335.860562)scale(0.1 -0.1)">
      <defs>
       <path d="M 9.8125 72.90625 
L 55.90625 72.90625 
L 55.90625 64.59375 
L 19.671875 64.59375 
L 19.671875 43.015625 
L 54.390625 43.015625 
L 54.390625 34.71875 
L 19.671875 34.71875 
L 19.671875 8.296875 
L 56.78125 8.296875 
L 56.78125 0 
L 9.8125 0 
z
" id="DejaVuSans-69"/>
       <path d="M 18.109375 8.203125 
L 18.109375 -20.796875 
L 9.078125 -20.796875 
L 9.078125 54.6875 
L 18.109375 54.6875 
L 18.109375 46.390625 
Q 20.953125 51.265625 25.265625 53.625 
Q 29.59375 56 35.59375 56 
Q 45.5625 56 51.78125 48.09375 
Q 58.015625 40.1875 58.015625 27.296875 
Q 58.015625 14.40625 51.78125 6.484375 
Q 45.5625 -1.421875 35.59375 -1.421875 
Q 29.59375 -1.421875 25.265625 0.953125 
Q 20.953125 3.328125 18.109375 8.203125 
z
M 48.6875 27.296875 
Q 48.6875 37.203125 44.609375 42.84375 
Q 40.53125 48.484375 33.40625 48.484375 
Q 26.265625 48.484375 22.1875 42.84375 
Q 18.109375 37.203125 18.109375 27.296875 
Q 18.109375 17.390625 22.1875 11.75 
Q 26.265625 6.109375 33.40625 6.109375 
Q 40.53125 6.109375 44.609375 11.75 
Q 48.6875 17.390625 48.6875 27.296875 
z
" id="DejaVuSans-112"/>
       <path d="M 9.421875 54.6875 
L 18.40625 54.6875 
L 18.40625 0 
L 9.421875 0 
z
M 9.421875 75.984375 
L 18.40625 75.984375 
L 18.40625 64.59375 
L 9.421875 64.59375 
z
" id="DejaVuSans-105"/>
       <path d="M 44.28125 53.078125 
L 44.28125 44.578125 
Q 40.484375 46.53125 36.375 47.5 
Q 32.28125 48.484375 27.875 48.484375 
Q 21.1875 48.484375 17.84375 46.4375 
Q 14.5 44.390625 14.5 40.28125 
Q 14.5 37.15625 16.890625 35.375 
Q 19.28125 33.59375 26.515625 31.984375 
L 29.59375 31.296875 
Q 39.15625 29.25 43.1875 25.515625 
Q 47.21875 21.78125 47.21875 15.09375 
Q 47.21875 7.46875 41.1875 3.015625 
Q 35.15625 -1.421875 24.609375 -1.421875 
Q 20.21875 -1.421875 15.453125 -0.5625 
Q 10.6875 0.296875 5.421875 2 
L 5.421875 11.28125 
Q 10.40625 8.6875 15.234375 7.390625 
Q 20.0625 6.109375 24.8125 6.109375 
Q 31.15625 6.109375 34.5625 8.28125 
Q 37.984375 10.453125 37.984375 14.40625 
Q 37.984375 18.0625 35.515625 20.015625 
Q 33.0625 21.96875 24.703125 23.78125 
L 21.578125 24.515625 
Q 13.234375 26.265625 9.515625 29.90625 
Q 5.8125 33.546875 5.8125 39.890625 
Q 5.8125 47.609375 11.28125 51.796875 
Q 16.75 56 26.8125 56 
Q 31.78125 56 36.171875 55.265625 
Q 40.578125 54.546875 44.28125 53.078125 
z
" id="DejaVuSans-115"/>
       <path d="M 30.609375 48.390625 
Q 23.390625 48.390625 19.1875 42.75 
Q 14.984375 37.109375 14.984375 27.296875 
Q 14.984375 17.484375 19.15625 11.84375 
Q 23.34375 6.203125 30.609375 6.203125 
Q 37.796875 6.203125 41.984375 11.859375 
Q 46.1875 17.53125 46.1875 27.296875 
Q 46.1875 37.015625 41.984375 42.703125 
Q 37.796875 48.390625 30.609375 48.390625 
z
M 30.609375 56 
Q 42.328125 56 49.015625 48.375 
Q 55.71875 40.765625 55.71875 27.296875 
Q 55.71875 13.875 49.015625 6.21875 
Q 42.328125 -1.421875 30.609375 -1.421875 
Q 18.84375 -1.421875 12.171875 6.21875 
Q 5.515625 13.875 5.515625 27.296875 
Q 5.515625 40.765625 12.171875 48.375 
Q 18.84375 56 30.609375 56 
z
" id="DejaVuSans-111"/>
       <path d="M 45.40625 46.390625 
L 45.40625 75.984375 
L 54.390625 75.984375 
L 54.390625 0 
L 45.40625 0 
L 45.40625 8.203125 
Q 42.578125 3.328125 38.25 0.953125 
Q 33.9375 -1.421875 27.875 -1.421875 
Q 17.96875 -1.421875 11.734375 6.484375 
Q 5.515625 14.40625 5.515625 27.296875 
Q 5.515625 40.1875 11.734375 48.09375 
Q 17.96875 56 27.875 56 
Q 33.9375 56 38.25 53.625 
Q 42.578125 51.265625 45.40625 46.390625 
z
M 14.796875 27.296875 
Q 14.796875 17.390625 18.875 11.75 
Q 22.953125 6.109375 30.078125 6.109375 
Q 37.203125 6.109375 41.296875 11.75 
Q 45.40625 17.390625 45.40625 27.296875 
Q 45.40625 37.203125 41.296875 42.84375 
Q 37.203125 48.484375 30.078125 48.484375 
Q 22.953125 48.484375 18.875 42.84375 
Q 14.796875 37.203125 14.796875 27.296875 
z
" id="DejaVuSans-100"/>
       <path d="M 56.203125 29.59375 
L 56.203125 25.203125 
L 14.890625 25.203125 
Q 15.484375 15.921875 20.484375 11.0625 
Q 25.484375 6.203125 34.421875 6.203125 
Q 39.59375 6.203125 44.453125 7.46875 
Q 49.3125 8.734375 54.109375 11.28125 
L 54.109375 2.78125 
Q 49.265625 0.734375 44.1875 -0.34375 
Q 39.109375 -1.421875 33.890625 -1.421875 
Q 20.796875 -1.421875 13.15625 6.1875 
Q 5.515625 13.8125 5.515625 26.8125 
Q 5.515625 40.234375 12.765625 48.109375 
Q 20.015625 56 32.328125 56 
Q 43.359375 56 49.78125 48.890625 
Q 56.203125 41.796875 56.203125 29.59375 
z
M 47.21875 32.234375 
Q 47.125 39.59375 43.09375 43.984375 
Q 39.0625 48.390625 32.421875 48.390625 
Q 24.90625 48.390625 20.390625 44.140625 
Q 15.875 39.890625 15.1875 32.171875 
z
" id="DejaVuSans-101"/>
       <path id="DejaVuSans-32"/>
       <path d="M 51.125 44 
L 36.921875 44 
L 32.8125 27.6875 
L 47.125 27.6875 
z
M 43.796875 71.78125 
L 38.71875 51.515625 
L 52.984375 51.515625 
L 58.109375 71.78125 
L 65.921875 71.78125 
L 60.890625 51.515625 
L 76.125 51.515625 
L 76.125 44 
L 58.984375 44 
L 54.984375 27.6875 
L 70.515625 27.6875 
L 70.515625 20.21875 
L 53.078125 20.21875 
L 48 0 
L 40.1875 0 
L 45.21875 20.21875 
L 30.90625 20.21875 
L 25.875 0 
L 18.015625 0 
L 23.09375 20.21875 
L 7.71875 20.21875 
L 7.71875 27.6875 
L 24.90625 27.6875 
L 29 44 
L 13.28125 44 
L 13.28125 51.515625 
L 30.90625 51.515625 
L 35.890625 71.78125 
z
" id="DejaVuSans-35"/>
      </defs>
      <use xlink:href="#DejaVuSans-69"/>
      <use x="63.183594" xlink:href="#DejaVuSans-112"/>
      <use x="126.660156" xlink:href="#DejaVuSans-105"/>
      <use x="154.443359" xlink:href="#DejaVuSans-115"/>
      <use x="206.542969" xlink:href="#DejaVuSans-111"/>
      <use x="267.724609" xlink:href="#DejaVuSans-100"/>
      <use x="331.201172" xlink:href="#DejaVuSans-101"/>
      <use x="392.724609" xlink:href="#DejaVuSans-32"/>
      <use x="424.511719" xlink:href="#DejaVuSans-35"/>
     </g>
    </g>
   </g>
   <g id="matplotlib.axis_2">
    <g id="ytick_1">
     <g id="line2d_9">
      <defs>
       <path d="M 0 0 
L -3.5 0 
" id="m8720fb2f25" style="stroke:#000000;stroke-width:0.8;"/>
      </defs>
      <g>
       <use style="stroke:#000000;stroke-width:0.8;" x="57.6" xlink:href="#m8720fb2f25" y="278.803862"/>
      </g>
     </g>
     <g id="text_10">
      <!-- 0 -->
      <g transform="translate(44.2375 282.603081)scale(0.1 -0.1)">
       <use xlink:href="#DejaVuSans-48"/>
      </g>
     </g>
    </g>
    <g id="ytick_2">
     <g id="line2d_10">
      <g>
       <use style="stroke:#000000;stroke-width:0.8;" x="57.6" xlink:href="#m8720fb2f25" y="237.093517"/>
      </g>
     </g>
     <g id="text_11">
      <!-- 5 -->
      <g transform="translate(44.2375 240.892736)scale(0.1 -0.1)">
       <use xlink:href="#DejaVuSans-53"/>
      </g>
     </g>
    </g>
    <g id="ytick_3">
     <g id="line2d_11">
      <g>
       <use style="stroke:#000000;stroke-width:0.8;" x="57.6" xlink:href="#m8720fb2f25" y="195.383172"/>
      </g>
     </g>
     <g id="text_12">
      <!-- 10 -->
      <g transform="translate(37.875 199.182391)scale(0.1 -0.1)">
       <use xlink:href="#DejaVuSans-49"/>
       <use x="63.623047" xlink:href="#DejaVuSans-48"/>
      </g>
     </g>
    </g>
    <g id="ytick_4">
     <g id="line2d_12">
      <g>
       <use style="stroke:#000000;stroke-width:0.8;" x="57.6" xlink:href="#m8720fb2f25" y="153.672828"/>
      </g>
     </g>
     <g id="text_13">
      <!-- 15 -->
      <g transform="translate(37.875 157.472046)scale(0.1 -0.1)">
       <use xlink:href="#DejaVuSans-49"/>
       <use x="63.623047" xlink:href="#DejaVuSans-53"/>
      </g>
     </g>
    </g>
    <g id="ytick_5">
     <g id="line2d_13">
      <g>
       <use style="stroke:#000000;stroke-width:0.8;" x="57.6" xlink:href="#m8720fb2f25" y="111.962483"/>
      </g>
     </g>
     <g id="text_14">
      <!-- 20 -->
      <g transform="translate(37.875 115.761702)scale(0.1 -0.1)">
       <use xlink:href="#DejaVuSans-50"/>
       <use x="63.623047" xlink:href="#DejaVuSans-48"/>
      </g>
     </g>
    </g>
    <g id="ytick_6">
     <g id="line2d_14">
      <g>
       <use style="stroke:#000000;stroke-width:0.8;" x="57.6" xlink:href="#m8720fb2f25" y="70.252138"/>
      </g>
     </g>
     <g id="text_15">
      <!-- 25 -->
      <g transform="translate(37.875 74.051357)scale(0.1 -0.1)">
       <use xlink:href="#DejaVuSans-50"/>
       <use x="63.623047" xlink:href="#DejaVuSans-53"/>
      </g>
     </g>
    </g>
    <g id="text_16">
     <!-- Score -->
     <g transform="translate(31.795313 188.530344)rotate(-90)scale(0.1 -0.1)">
      <defs>
       <path d="M 53.515625 70.515625 
L 53.515625 60.890625 
Q 47.90625 63.578125 42.921875 64.890625 
Q 37.9375 66.21875 33.296875 66.21875 
Q 25.25 66.21875 20.875 63.09375 
Q 16.5 59.96875 16.5 54.203125 
Q 16.5 49.359375 19.40625 46.890625 
Q 22.3125 44.4375 30.421875 42.921875 
L 36.375 41.703125 
Q 47.40625 39.59375 52.65625 34.296875 
Q 57.90625 29 57.90625 20.125 
Q 57.90625 9.515625 50.796875 4.046875 
Q 43.703125 -1.421875 29.984375 -1.421875 
Q 24.8125 -1.421875 18.96875 -0.25 
Q 13.140625 0.921875 6.890625 3.21875 
L 6.890625 13.375 
Q 12.890625 10.015625 18.65625 8.296875 
Q 24.421875 6.59375 29.984375 6.59375 
Q 38.421875 6.59375 43.015625 9.90625 
Q 47.609375 13.234375 47.609375 19.390625 
Q 47.609375 24.75 44.3125 27.78125 
Q 41.015625 30.8125 33.5 32.328125 
L 27.484375 33.5 
Q 16.453125 35.6875 11.515625 40.375 
Q 6.59375 45.0625 6.59375 53.421875 
Q 6.59375 63.09375 13.40625 68.65625 
Q 20.21875 74.21875 32.171875 74.21875 
Q 37.3125 74.21875 42.625 73.28125 
Q 47.953125 72.359375 53.515625 70.515625 
z
" id="DejaVuSans-83"/>
       <path d="M 48.78125 52.59375 
L 48.78125 44.1875 
Q 44.96875 46.296875 41.140625 47.34375 
Q 37.3125 48.390625 33.40625 48.390625 
Q 24.65625 48.390625 19.8125 42.84375 
Q 14.984375 37.3125 14.984375 27.296875 
Q 14.984375 17.28125 19.8125 11.734375 
Q 24.65625 6.203125 33.40625 6.203125 
Q 37.3125 6.203125 41.140625 7.25 
Q 44.96875 8.296875 48.78125 10.40625 
L 48.78125 2.09375 
Q 45.015625 0.34375 40.984375 -0.53125 
Q 36.96875 -1.421875 32.421875 -1.421875 
Q 20.0625 -1.421875 12.78125 6.34375 
Q 5.515625 14.109375 5.515625 27.296875 
Q 5.515625 40.671875 12.859375 48.328125 
Q 20.21875 56 33.015625 56 
Q 37.15625 56 41.109375 55.140625 
Q 45.0625 54.296875 48.78125 52.59375 
z
" id="DejaVuSans-99"/>
       <path d="M 41.109375 46.296875 
Q 39.59375 47.171875 37.8125 47.578125 
Q 36.03125 48 33.890625 48 
Q 26.265625 48 22.1875 43.046875 
Q 18.109375 38.09375 18.109375 28.8125 
L 18.109375 0 
L 9.078125 0 
L 9.078125 54.6875 
L 18.109375 54.6875 
L 18.109375 46.1875 
Q 20.953125 51.171875 25.484375 53.578125 
Q 30.03125 56 36.53125 56 
Q 37.453125 56 38.578125 55.875 
Q 39.703125 55.765625 41.0625 55.515625 
z
" id="DejaVuSans-114"/>
      </defs>
      <use xlink:href="#DejaVuSans-83"/>
      <use x="63.476562" xlink:href="#DejaVuSans-99"/>
      <use x="118.457031" xlink:href="#DejaVuSans-111"/>
      <use x="179.638672" xlink:href="#DejaVuSans-114"/>
      <use x="218.501953" xlink:href="#DejaVuSans-101"/>
     </g>
    </g>
   </g>
   <g id="line2d_15">
    <path clip-path="url(#pd0c383e60d)" d="M 73.832727 278.803862 
L 74.013191 270.461793 
L 74.374119 287.145931 
L 74.554583 278.803862 
L 74.915511 278.803862 
L 75.095975 270.461793 
L 75.276438 278.803862 
L 75.456902 270.461793 
L 75.637366 270.461793 
L 75.81783 278.803862 
L 75.998294 237.093517 
L 76.359222 295.488 
L 76.539686 253.777655 
L 76.72015 270.461793 
L 76.900613 270.461793 
L 77.081077 278.803862 
L 77.261541 295.488 
L 77.802933 270.461793 
L 77.983397 278.803862 
L 78.163861 262.119724 
L 78.344325 278.803862 
L 78.705252 278.803862 
L 79.06618 262.119724 
L 79.246644 278.803862 
L 79.427108 278.803862 
L 79.607572 270.461793 
L 79.788036 287.145931 
L 79.9685 270.461793 
L 80.148964 278.803862 
L 80.509891 278.803862 
L 80.690355 295.488 
L 80.870819 270.461793 
L 81.051283 287.145931 
L 81.592675 262.119724 
L 81.773139 270.461793 
L 82.31453 270.461793 
L 82.494994 287.145931 
L 82.675458 278.803862 
L 83.397314 278.803862 
L 83.577778 287.145931 
L 83.758241 278.803862 
L 83.938705 278.803862 
L 84.119169 253.777655 
L 84.299633 287.145931 
L 84.480097 245.435586 
L 84.660561 278.803862 
L 85.021489 262.119724 
L 85.201953 278.803862 
L 85.382416 270.461793 
L 85.56288 278.803862 
L 86.284736 278.803862 
L 86.4652 262.119724 
L 86.645664 278.803862 
L 86.826128 278.803862 
L 87.006592 262.119724 
L 87.187055 278.803862 
L 87.367519 262.119724 
L 87.547983 278.803862 
L 87.728447 270.461793 
L 87.908911 245.435586 
L 88.089375 278.803862 
L 88.269839 287.145931 
L 88.450303 270.461793 
L 88.81123 287.145931 
L 88.991694 278.803862 
L 89.71355 278.803862 
L 89.894014 253.777655 
L 90.074478 278.803862 
L 90.254942 278.803862 
L 90.435406 270.461793 
L 90.615869 278.803862 
L 90.796333 270.461793 
L 90.976797 287.145931 
L 91.157261 270.461793 
L 91.337725 278.803862 
L 91.518189 278.803862 
L 91.879117 253.777655 
L 92.059581 262.119724 
L 92.240044 262.119724 
L 92.420508 228.751448 
L 92.781436 278.803862 
L 92.9619 287.145931 
L 93.503292 237.093517 
L 93.683756 262.119724 
L 93.86422 253.777655 
L 94.044683 278.803862 
L 94.405611 253.777655 
L 94.586075 278.803862 
L 94.766539 245.435586 
L 94.947003 270.461793 
L 95.127467 278.803862 
L 95.488395 253.777655 
L 95.668858 262.119724 
L 95.849322 278.803862 
L 96.029786 262.119724 
L 96.21025 270.461793 
L 96.571178 245.435586 
L 96.751642 262.119724 
L 96.932106 262.119724 
L 97.11257 253.777655 
L 97.293034 253.777655 
L 97.473497 245.435586 
L 97.653961 287.145931 
L 98.014889 245.435586 
L 98.195353 295.488 
L 98.375817 237.093517 
L 98.556281 270.461793 
L 98.736745 262.119724 
L 98.917209 237.093517 
L 99.097672 253.777655 
L 99.278136 253.777655 
L 99.4586 262.119724 
L 99.639064 237.093517 
L 99.819528 270.461793 
L 99.999992 245.435586 
L 100.180456 270.461793 
L 100.36092 195.383172 
L 100.541384 245.435586 
L 100.721847 262.119724 
L 101.263239 220.409379 
L 101.443703 262.119724 
L 101.624167 270.461793 
L 101.804631 245.435586 
L 101.985095 287.145931 
L 102.165559 253.777655 
L 102.346023 245.435586 
L 102.526486 245.435586 
L 102.70695 228.751448 
L 103.067878 270.461793 
L 103.248342 228.751448 
L 103.428806 237.093517 
L 103.60927 262.119724 
L 103.789734 253.777655 
L 104.150661 228.751448 
L 104.331125 262.119724 
L 104.511589 220.409379 
L 104.692053 212.06731 
L 104.872517 253.777655 
L 105.052981 253.777655 
L 105.233445 278.803862 
L 105.413909 270.461793 
L 105.594373 237.093517 
L 105.774837 262.119724 
L 105.9553 237.093517 
L 106.135764 237.093517 
L 106.316228 228.751448 
L 106.496692 253.777655 
L 106.677156 228.751448 
L 106.85762 237.093517 
L 107.038084 212.06731 
L 107.218548 228.751448 
L 107.399012 212.06731 
L 107.579475 237.093517 
L 107.759939 220.409379 
L 107.940403 262.119724 
L 108.120867 253.777655 
L 108.301331 228.751448 
L 108.481795 228.751448 
L 108.662259 270.461793 
L 109.203651 228.751448 
L 109.564578 253.777655 
L 109.745042 245.435586 
L 109.925506 220.409379 
L 110.286434 270.461793 
L 110.466898 220.409379 
L 110.647362 237.093517 
L 110.827826 212.06731 
L 111.008289 220.409379 
L 111.188753 237.093517 
L 111.369217 237.093517 
L 111.549681 270.461793 
L 111.730145 220.409379 
L 111.910609 245.435586 
L 112.271537 203.725241 
L 112.632465 253.777655 
L 112.812928 228.751448 
L 112.993392 237.093517 
L 113.173856 262.119724 
L 113.35432 253.777655 
L 113.534784 237.093517 
L 113.715248 203.725241 
L 113.895712 278.803862 
L 114.076176 220.409379 
L 114.25664 253.777655 
L 114.437103 228.751448 
L 114.617567 228.751448 
L 114.798031 237.093517 
L 114.978495 228.751448 
L 115.339423 278.803862 
L 115.700351 237.093517 
L 115.880815 212.06731 
L 116.241742 237.093517 
L 116.422206 245.435586 
L 116.783134 203.725241 
L 116.963598 237.093517 
L 117.144062 228.751448 
L 117.324526 203.725241 
L 117.50499 195.383172 
L 117.685454 245.435586 
L 117.865917 220.409379 
L 118.226845 245.435586 
L 118.407309 237.093517 
L 118.587773 262.119724 
L 118.768237 203.725241 
L 118.948701 228.751448 
L 119.129165 237.093517 
L 119.309629 220.409379 
L 119.490092 220.409379 
L 119.670556 228.751448 
L 119.85102 195.383172 
L 120.031484 245.435586 
L 120.211948 212.06731 
L 120.572876 262.119724 
L 120.933804 220.409379 
L 121.114268 178.699034 
L 121.294731 237.093517 
L 121.655659 212.06731 
L 121.836123 212.06731 
L 122.016587 262.119724 
L 122.377515 212.06731 
L 122.557979 228.751448 
L 122.738443 228.751448 
L 122.918906 220.409379 
L 123.09937 195.383172 
L 123.279834 212.06731 
L 123.460298 245.435586 
L 123.640762 228.751448 
L 123.821226 178.699034 
L 124.00169 237.093517 
L 124.182154 212.06731 
L 124.543082 195.383172 
L 124.723545 228.751448 
L 124.904009 203.725241 
L 125.084473 195.383172 
L 125.264937 212.06731 
L 125.445401 187.041103 
L 125.625865 195.383172 
L 125.806329 270.461793 
L 125.986793 145.330759 
L 126.167257 220.409379 
L 126.34772 220.409379 
L 126.528184 253.777655 
L 126.708648 203.725241 
L 126.889112 195.383172 
L 127.25004 170.356966 
L 127.430504 237.093517 
L 127.610968 170.356966 
L 127.971895 278.803862 
L 128.152359 170.356966 
L 128.513287 220.409379 
L 128.693751 245.435586 
L 128.874215 203.725241 
L 129.054679 195.383172 
L 129.235143 220.409379 
L 129.415607 170.356966 
L 129.596071 195.383172 
L 129.776534 203.725241 
L 129.956998 262.119724 
L 130.137462 212.06731 
L 130.317926 228.751448 
L 130.49839 228.751448 
L 130.678854 253.777655 
L 130.859318 162.014897 
L 131.039782 212.06731 
L 131.400709 195.383172 
L 131.581173 170.356966 
L 131.942101 278.803862 
L 132.122565 203.725241 
L 132.303029 270.461793 
L 132.483493 203.725241 
L 132.663957 203.725241 
L 132.844421 262.119724 
L 133.024885 195.383172 
L 133.205348 170.356966 
L 133.566276 228.751448 
L 133.74674 170.356966 
L 133.927204 153.672828 
L 134.107668 253.777655 
L 134.288132 203.725241 
L 134.64906 203.725241 
L 134.829523 262.119724 
L 135.009987 187.041103 
L 135.370915 262.119724 
L 135.551379 237.093517 
L 135.731843 237.093517 
L 135.912307 212.06731 
L 136.092771 228.751448 
L 136.273235 228.751448 
L 136.453699 203.725241 
L 136.634162 220.409379 
L 136.814626 253.777655 
L 136.99509 145.330759 
L 137.175554 178.699034 
L 137.356018 237.093517 
L 137.716946 195.383172 
L 137.89741 203.725241 
L 138.077874 262.119724 
L 138.258337 228.751448 
L 138.438801 220.409379 
L 138.619265 195.383172 
L 138.799729 253.777655 
L 138.980193 178.699034 
L 139.160657 212.06731 
L 139.341121 187.041103 
L 139.521585 253.777655 
L 139.702049 187.041103 
L 139.882513 262.119724 
L 140.062976 162.014897 
L 140.423904 253.777655 
L 140.604368 170.356966 
L 140.784832 187.041103 
L 140.965296 262.119724 
L 141.14576 187.041103 
L 141.326224 220.409379 
L 141.506688 203.725241 
L 141.687151 220.409379 
L 141.867615 153.672828 
L 142.048079 212.06731 
L 142.228543 212.06731 
L 142.409007 170.356966 
L 142.589471 253.777655 
L 142.769935 203.725241 
L 142.950399 212.06731 
L 143.130863 195.383172 
L 143.311326 195.383172 
L 143.49179 162.014897 
L 143.672254 212.06731 
L 143.852718 195.383172 
L 144.033182 153.672828 
L 144.213646 162.014897 
L 144.39411 178.699034 
L 144.574574 237.093517 
L 144.755038 178.699034 
L 145.115965 228.751448 
L 145.296429 153.672828 
L 145.476893 220.409379 
L 145.657357 153.672828 
L 145.837821 220.409379 
L 146.018285 170.356966 
L 146.198749 203.725241 
L 146.379213 203.725241 
L 146.559677 187.041103 
L 146.74014 228.751448 
L 146.920604 170.356966 
L 147.101068 220.409379 
L 147.281532 162.014897 
L 147.64246 203.725241 
L 147.822924 145.330759 
L 148.003388 136.98869 
L 148.183852 203.725241 
L 148.364316 153.672828 
L 148.544779 253.777655 
L 148.725243 145.330759 
L 148.905707 187.041103 
L 149.086171 162.014897 
L 149.266635 262.119724 
L 149.627563 162.014897 
L 149.808027 212.06731 
L 149.988491 170.356966 
L 150.168954 162.014897 
L 150.349418 220.409379 
L 150.710346 95.278345 
L 150.89081 195.383172 
L 151.071274 220.409379 
L 151.251738 203.725241 
L 151.432202 170.356966 
L 151.612666 162.014897 
L 151.79313 178.699034 
L 151.973593 178.699034 
L 152.154057 195.383172 
L 152.334521 162.014897 
L 152.514985 203.725241 
L 152.695449 187.041103 
L 152.875913 153.672828 
L 153.056377 170.356966 
L 153.236841 212.06731 
L 153.597768 162.014897 
L 153.778232 228.751448 
L 153.958696 203.725241 
L 154.13916 162.014897 
L 154.500088 203.725241 
L 154.680552 203.725241 
L 154.861016 212.06731 
L 155.04148 128.646621 
L 155.221944 195.383172 
L 155.402407 187.041103 
L 155.582871 136.98869 
L 155.763335 245.435586 
L 155.943799 187.041103 
L 156.124263 187.041103 
L 156.485191 128.646621 
L 156.665655 203.725241 
L 157.026582 153.672828 
L 157.38751 228.751448 
L 157.567974 237.093517 
L 157.748438 187.041103 
L 157.928902 195.383172 
L 158.28983 145.330759 
L 158.470294 153.672828 
L 158.650757 170.356966 
L 158.831221 170.356966 
L 159.011685 136.98869 
L 159.192149 136.98869 
L 159.372613 187.041103 
L 159.553077 170.356966 
L 159.733541 212.06731 
L 159.914005 187.041103 
L 160.094469 203.725241 
L 160.274933 203.725241 
L 160.455396 220.409379 
L 160.63586 145.330759 
L 160.816324 170.356966 
L 160.996788 245.435586 
L 161.177252 170.356966 
L 161.53818 187.041103 
L 161.718644 187.041103 
L 161.899108 203.725241 
L 162.079571 237.093517 
L 162.260035 103.620414 
L 162.440499 170.356966 
L 162.620963 153.672828 
L 162.801427 212.06731 
L 162.981891 220.409379 
L 163.162355 178.699034 
L 163.342819 187.041103 
L 163.523283 170.356966 
L 163.703747 220.409379 
L 163.88421 162.014897 
L 164.064674 170.356966 
L 164.245138 228.751448 
L 164.425602 212.06731 
L 164.606066 153.672828 
L 164.966994 153.672828 
L 165.147458 203.725241 
L 165.327922 162.014897 
L 165.508385 187.041103 
L 165.688849 153.672828 
L 165.869313 220.409379 
L 166.049777 153.672828 
L 166.230241 187.041103 
L 166.410705 170.356966 
L 166.591169 178.699034 
L 166.771633 228.751448 
L 166.952097 153.672828 
L 167.132561 153.672828 
L 167.313024 187.041103 
L 167.493488 120.304552 
L 167.673952 178.699034 
L 167.854416 162.014897 
L 168.03488 212.06731 
L 168.576272 95.278345 
L 168.937199 212.06731 
L 169.117663 153.672828 
L 169.478591 136.98869 
L 169.659055 178.699034 
L 169.839519 162.014897 
L 170.019983 128.646621 
L 170.200447 203.725241 
L 170.380911 220.409379 
L 170.741838 187.041103 
L 170.922302 220.409379 
L 171.102766 195.383172 
L 171.28323 212.06731 
L 171.463694 145.330759 
L 171.644158 178.699034 
L 171.824622 153.672828 
L 172.005086 162.014897 
L 172.366013 212.06731 
L 172.546477 153.672828 
L 172.726941 162.014897 
L 172.907405 253.777655 
L 173.087869 120.304552 
L 173.268333 178.699034 
L 173.448797 187.041103 
L 173.629261 187.041103 
L 173.809725 228.751448 
L 173.990188 203.725241 
L 174.170652 145.330759 
L 174.53158 220.409379 
L 174.712044 153.672828 
L 174.892508 170.356966 
L 175.072972 212.06731 
L 175.253436 145.330759 
L 175.4339 162.014897 
L 175.614364 220.409379 
L 175.794827 136.98869 
L 175.975291 145.330759 
L 176.155755 136.98869 
L 176.336219 212.06731 
L 176.516683 170.356966 
L 176.697147 178.699034 
L 176.877611 170.356966 
L 177.058075 111.962483 
L 177.238539 178.699034 
L 177.419002 145.330759 
L 177.599466 136.98869 
L 177.77993 145.330759 
L 177.960394 187.041103 
L 178.140858 136.98869 
L 178.321322 237.093517 
L 178.501786 145.330759 
L 178.862714 195.383172 
L 179.223641 136.98869 
L 179.404105 170.356966 
L 179.584569 262.119724 
L 179.765033 153.672828 
L 179.945497 170.356966 
L 180.125961 162.014897 
L 180.306425 220.409379 
L 180.667353 153.672828 
L 180.847816 153.672828 
L 181.02828 187.041103 
L 181.208744 128.646621 
L 181.569672 187.041103 
L 181.750136 170.356966 
L 181.9306 220.409379 
L 182.111064 170.356966 
L 182.291528 170.356966 
L 182.471992 178.699034 
L 182.652455 203.725241 
L 182.832919 136.98869 
L 183.013383 195.383172 
L 183.193847 128.646621 
L 183.554775 228.751448 
L 183.735239 178.699034 
L 183.915703 170.356966 
L 184.096167 187.041103 
L 184.27663 178.699034 
L 184.457094 178.699034 
L 184.637558 145.330759 
L 184.818022 153.672828 
L 185.17895 153.672828 
L 185.359414 136.98869 
L 185.539878 178.699034 
L 185.720342 111.962483 
L 185.900805 187.041103 
L 186.081269 145.330759 
L 186.261733 203.725241 
L 186.442197 136.98869 
L 186.622661 111.962483 
L 186.803125 162.014897 
L 186.983589 128.646621 
L 187.524981 228.751448 
L 187.705444 195.383172 
L 187.885908 212.06731 
L 188.246836 136.98869 
L 188.607764 187.041103 
L 188.788228 136.98869 
L 188.968692 178.699034 
L 189.149156 145.330759 
L 189.329619 170.356966 
L 189.871011 128.646621 
L 190.051475 128.646621 
L 190.231939 136.98869 
L 190.412403 178.699034 
L 190.592867 178.699034 
L 190.773331 212.06731 
L 190.953795 195.383172 
L 191.134258 245.435586 
L 191.314722 237.093517 
L 191.495186 170.356966 
L 191.67565 228.751448 
L 191.856114 120.304552 
L 192.036578 170.356966 
L 192.217042 128.646621 
L 192.397506 145.330759 
L 192.57797 128.646621 
L 192.758433 153.672828 
L 192.938897 195.383172 
L 193.119361 162.014897 
L 193.299825 170.356966 
L 193.480289 170.356966 
L 193.660753 195.383172 
L 193.841217 128.646621 
L 194.021681 187.041103 
L 194.202145 136.98869 
L 194.563072 120.304552 
L 194.924 237.093517 
L 195.104464 153.672828 
L 195.284928 170.356966 
L 195.465392 162.014897 
L 195.645856 178.699034 
L 195.82632 128.646621 
L 196.006784 162.014897 
L 196.187247 153.672828 
L 196.367711 187.041103 
L 196.548175 170.356966 
L 196.728639 187.041103 
L 197.089567 136.98869 
L 197.270031 178.699034 
L 197.450495 162.014897 
L 197.630959 203.725241 
L 197.811423 162.014897 
L 197.991886 178.699034 
L 198.17235 153.672828 
L 198.352814 195.383172 
L 198.533278 170.356966 
L 198.713742 170.356966 
L 198.894206 111.962483 
L 199.07467 162.014897 
L 199.255134 162.014897 
L 199.435598 153.672828 
L 199.616061 245.435586 
L 199.976989 111.962483 
L 200.157453 95.278345 
L 200.337917 220.409379 
L 200.518381 136.98869 
L 200.698845 136.98869 
L 200.879309 111.962483 
L 201.240236 170.356966 
L 201.4207 145.330759 
L 201.601164 145.330759 
L 201.781628 220.409379 
L 201.962092 111.962483 
L 202.142556 120.304552 
L 202.32302 111.962483 
L 202.503484 187.041103 
L 202.683948 162.014897 
L 202.864412 153.672828 
L 203.044875 195.383172 
L 203.225339 195.383172 
L 203.405803 70.252138 
L 203.586267 136.98869 
L 203.766731 145.330759 
L 203.947195 162.014897 
L 204.127659 162.014897 
L 204.308123 153.672828 
L 204.488587 203.725241 
L 204.66905 128.646621 
L 204.849514 187.041103 
L 205.029978 162.014897 
L 205.210442 195.383172 
L 205.390906 170.356966 
L 205.57137 111.962483 
L 205.751834 162.014897 
L 205.932298 128.646621 
L 206.112762 170.356966 
L 206.293226 128.646621 
L 206.473689 212.06731 
L 206.654153 120.304552 
L 206.834617 203.725241 
L 207.015081 187.041103 
L 207.195545 145.330759 
L 207.376009 136.98869 
L 207.736937 212.06731 
L 208.097864 145.330759 
L 208.278328 195.383172 
L 208.458792 128.646621 
L 208.639256 212.06731 
L 208.81972 178.699034 
L 209.000184 195.383172 
L 209.361112 178.699034 
L 209.541576 162.014897 
L 209.72204 170.356966 
L 210.082967 153.672828 
L 210.263431 195.383172 
L 210.443895 136.98869 
L 210.624359 153.672828 
L 210.804823 145.330759 
L 210.985287 128.646621 
L 211.165751 153.672828 
L 211.346215 128.646621 
L 211.526678 203.725241 
L 211.707142 220.409379 
L 212.06807 153.672828 
L 212.248534 145.330759 
L 212.428998 212.06731 
L 212.609462 203.725241 
L 212.789926 245.435586 
L 213.150854 128.646621 
L 213.331317 120.304552 
L 213.511781 153.672828 
L 213.692245 128.646621 
L 213.872709 153.672828 
L 214.053173 228.751448 
L 214.414101 128.646621 
L 214.594565 162.014897 
L 214.775029 136.98869 
L 215.135956 162.014897 
L 215.31642 228.751448 
L 215.496884 170.356966 
L 215.677348 178.699034 
L 215.857812 153.672828 
L 216.038276 228.751448 
L 216.21874 120.304552 
L 216.760131 228.751448 
L 216.940595 162.014897 
L 217.121059 220.409379 
L 217.301523 111.962483 
L 217.481987 111.962483 
L 217.842915 162.014897 
L 218.023379 120.304552 
L 218.384306 162.014897 
L 218.56477 145.330759 
L 218.745234 153.672828 
L 219.106162 70.252138 
L 219.46709 128.646621 
L 219.647554 145.330759 
L 219.828018 195.383172 
L 220.008481 195.383172 
L 220.188945 178.699034 
L 220.369409 136.98869 
L 220.549873 162.014897 
L 220.910801 120.304552 
L 221.091265 145.330759 
L 221.271729 228.751448 
L 221.452193 187.041103 
L 221.632657 111.962483 
L 221.81312 162.014897 
L 221.993584 153.672828 
L 222.174048 187.041103 
L 222.354512 162.014897 
L 222.534976 170.356966 
L 222.895904 153.672828 
L 223.076368 153.672828 
L 223.256832 187.041103 
L 223.437295 187.041103 
L 223.617759 153.672828 
L 223.798223 212.06731 
L 223.978687 195.383172 
L 224.159151 153.672828 
L 224.339615 178.699034 
L 224.520079 220.409379 
L 224.700543 136.98869 
L 224.881007 153.672828 
L 225.241934 103.620414 
L 225.602862 187.041103 
L 225.783326 111.962483 
L 225.96379 128.646621 
L 226.144254 212.06731 
L 226.505182 128.646621 
L 226.685646 128.646621 
L 226.866109 153.672828 
L 227.046573 136.98869 
L 227.587965 187.041103 
L 227.768429 228.751448 
L 227.948893 153.672828 
L 228.129357 162.014897 
L 228.309821 103.620414 
L 228.490285 170.356966 
L 228.670748 145.330759 
L 228.851212 178.699034 
L 229.031676 162.014897 
L 229.21214 120.304552 
L 229.392604 128.646621 
L 229.573068 153.672828 
L 229.753532 162.014897 
L 229.933996 153.672828 
L 230.11446 70.252138 
L 230.294923 145.330759 
L 230.475387 145.330759 
L 230.655851 153.672828 
L 230.836315 145.330759 
L 231.016779 245.435586 
L 231.197243 128.646621 
L 231.377707 170.356966 
L 231.558171 145.330759 
L 231.738635 153.672828 
L 231.919098 178.699034 
L 232.280026 120.304552 
L 232.640954 212.06731 
L 232.821418 162.014897 
L 233.001882 153.672828 
L 233.182346 170.356966 
L 233.36281 120.304552 
L 233.543274 162.014897 
L 233.723737 162.014897 
L 234.084665 95.278345 
L 234.265129 145.330759 
L 234.445593 111.962483 
L 234.806521 187.041103 
L 234.986985 120.304552 
L 235.167449 170.356966 
L 235.347912 145.330759 
L 235.528376 178.699034 
L 235.70884 136.98869 
L 235.889304 170.356966 
L 236.069768 178.699034 
L 236.250232 153.672828 
L 236.430696 170.356966 
L 236.61116 111.962483 
L 236.972088 145.330759 
L 237.152551 120.304552 
L 237.333015 145.330759 
L 237.513479 78.594207 
L 237.693943 162.014897 
L 237.874407 103.620414 
L 238.054871 95.278345 
L 238.235335 187.041103 
L 238.415799 128.646621 
L 238.596263 178.699034 
L 238.776726 145.330759 
L 238.95719 212.06731 
L 239.318118 111.962483 
L 239.498582 136.98869 
L 239.679046 178.699034 
L 239.85951 128.646621 
L 240.039974 187.041103 
L 240.220438 136.98869 
L 240.400902 170.356966 
L 240.581365 170.356966 
L 240.761829 162.014897 
L 240.942293 170.356966 
L 241.122757 203.725241 
L 241.303221 145.330759 
L 241.483685 195.383172 
L 241.664149 203.725241 
L 241.844613 136.98869 
L 242.025077 162.014897 
L 242.386004 103.620414 
L 242.746932 195.383172 
L 242.927396 170.356966 
L 243.10786 103.620414 
L 243.288324 170.356966 
L 243.468788 153.672828 
L 243.649252 162.014897 
L 243.829715 178.699034 
L 244.010179 178.699034 
L 244.190643 128.646621 
L 244.371107 128.646621 
L 244.551571 78.594207 
L 244.732035 162.014897 
L 244.912499 128.646621 
L 245.092963 212.06731 
L 245.273427 120.304552 
L 245.453891 145.330759 
L 245.634354 220.409379 
L 245.814818 153.672828 
L 246.175746 178.699034 
L 246.35621 145.330759 
L 246.536674 136.98869 
L 246.717138 86.936276 
L 246.897602 187.041103 
L 247.078066 162.014897 
L 247.258529 162.014897 
L 247.438993 111.962483 
L 247.619457 170.356966 
L 247.799921 145.330759 
L 247.980385 162.014897 
L 248.341313 111.962483 
L 248.521777 145.330759 
L 248.702241 136.98869 
L 248.882705 178.699034 
L 249.063168 187.041103 
L 249.424096 145.330759 
L 249.60456 178.699034 
L 249.785024 145.330759 
L 249.965488 153.672828 
L 250.145952 145.330759 
L 250.326416 162.014897 
L 250.50688 120.304552 
L 250.687343 178.699034 
L 250.867807 162.014897 
L 251.048271 103.620414 
L 251.228735 187.041103 
L 251.409199 103.620414 
L 251.770127 153.672828 
L 251.950591 153.672828 
L 252.131055 187.041103 
L 252.311519 170.356966 
L 252.491982 228.751448 
L 252.672446 212.06731 
L 252.85291 178.699034 
L 253.033374 78.594207 
L 253.213838 170.356966 
L 253.394302 120.304552 
L 253.574766 187.041103 
L 253.935694 103.620414 
L 254.116157 212.06731 
L 254.296621 120.304552 
L 254.477085 120.304552 
L 255.198941 178.699034 
L 255.379405 145.330759 
L 255.559869 153.672828 
L 255.740333 153.672828 
L 255.920796 187.041103 
L 256.10126 136.98869 
L 256.462188 245.435586 
L 256.642652 162.014897 
L 256.823116 136.98869 
L 257.00358 153.672828 
L 257.184044 136.98869 
L 257.364508 153.672828 
L 257.544971 120.304552 
L 257.725435 162.014897 
L 257.905899 120.304552 
L 258.086363 178.699034 
L 258.266827 136.98869 
L 258.447291 203.725241 
L 258.627755 128.646621 
L 258.808219 162.014897 
L 258.988683 128.646621 
L 259.169146 203.725241 
L 259.530074 120.304552 
L 259.710538 128.646621 
L 259.891002 203.725241 
L 260.071466 128.646621 
L 260.25193 178.699034 
L 260.612858 153.672828 
L 260.973785 195.383172 
L 261.334713 120.304552 
L 261.695641 162.014897 
L 261.876105 128.646621 
L 262.237033 187.041103 
L 262.59796 120.304552 
L 262.778424 128.646621 
L 262.958888 153.672828 
L 263.139352 111.962483 
L 263.319816 187.041103 
L 263.50028 128.646621 
L 263.680744 128.646621 
L 264.041672 170.356966 
L 264.222136 136.98869 
L 264.402599 136.98869 
L 264.583063 120.304552 
L 264.763527 203.725241 
L 264.943991 95.278345 
L 265.124455 120.304552 
L 265.304919 178.699034 
L 265.485383 145.330759 
L 265.665847 170.356966 
L 265.846311 228.751448 
L 266.026774 86.936276 
L 266.387702 178.699034 
L 266.568166 195.383172 
L 266.74863 120.304552 
L 266.929094 111.962483 
L 267.109558 95.278345 
L 267.290022 178.699034 
L 267.470486 162.014897 
L 267.65095 162.014897 
L 267.831413 170.356966 
L 268.011877 162.014897 
L 268.192341 136.98869 
L 268.372805 187.041103 
L 268.553269 162.014897 
L 268.733733 212.06731 
L 269.094661 136.98869 
L 269.455588 187.041103 
L 269.636052 136.98869 
L 269.816516 128.646621 
L 270.177444 228.751448 
L 270.357908 145.330759 
L 270.538372 145.330759 
L 270.718836 162.014897 
L 270.8993 145.330759 
L 271.260227 187.041103 
L 271.440691 178.699034 
L 271.621155 153.672828 
L 271.801619 95.278345 
L 271.982083 103.620414 
L 272.162547 120.304552 
L 272.343011 170.356966 
L 272.523475 170.356966 
L 272.703939 153.672828 
L 272.884402 78.594207 
L 273.064866 120.304552 
L 273.24533 128.646621 
L 273.425794 195.383172 
L 273.606258 195.383172 
L 274.14765 111.962483 
L 274.328114 187.041103 
L 274.508577 128.646621 
L 274.689041 162.014897 
L 274.869505 128.646621 
L 275.049969 170.356966 
L 275.230433 145.330759 
L 275.410897 153.672828 
L 275.591361 153.672828 
L 275.771825 162.014897 
L 275.952289 111.962483 
L 276.132753 187.041103 
L 276.313216 145.330759 
L 276.674144 195.383172 
L 276.854608 170.356966 
L 277.215536 203.725241 
L 277.396 170.356966 
L 277.576464 220.409379 
L 277.756928 162.014897 
L 277.937391 203.725241 
L 278.117855 153.672828 
L 278.298319 195.383172 
L 278.478783 136.98869 
L 278.659247 136.98869 
L 278.839711 162.014897 
L 279.020175 103.620414 
L 279.200639 187.041103 
L 279.381103 187.041103 
L 279.561567 145.330759 
L 279.74203 153.672828 
L 279.922494 195.383172 
L 280.102958 136.98869 
L 280.283422 120.304552 
L 280.463886 203.725241 
L 280.64435 70.252138 
L 280.824814 145.330759 
L 281.005278 103.620414 
L 281.366205 145.330759 
L 281.727133 220.409379 
L 281.907597 195.383172 
L 282.088061 153.672828 
L 282.268525 162.014897 
L 282.448989 187.041103 
L 282.809917 103.620414 
L 283.170844 153.672828 
L 283.351308 162.014897 
L 283.531772 136.98869 
L 283.712236 128.646621 
L 283.8927 178.699034 
L 284.073164 53.568 
L 284.253628 195.383172 
L 284.434092 128.646621 
L 284.614556 136.98869 
L 284.795019 203.725241 
L 284.975483 145.330759 
L 285.155947 178.699034 
L 285.336411 128.646621 
L 285.516875 136.98869 
L 286.238731 195.383172 
L 286.419195 153.672828 
L 286.599658 187.041103 
L 286.780122 145.330759 
L 287.14105 228.751448 
L 287.321514 136.98869 
L 287.501978 120.304552 
L 287.682442 128.646621 
L 287.862906 153.672828 
L 288.04337 111.962483 
L 288.223833 162.014897 
L 288.404297 170.356966 
L 288.584761 145.330759 
L 288.765225 187.041103 
L 288.945689 95.278345 
L 289.126153 220.409379 
L 289.306617 128.646621 
L 289.487081 95.278345 
L 289.667545 203.725241 
L 289.848008 187.041103 
L 290.028472 136.98869 
L 290.208936 120.304552 
L 290.3894 203.725241 
L 290.569864 153.672828 
L 290.750328 136.98869 
L 290.930792 270.461793 
L 291.111256 95.278345 
L 291.29172 203.725241 
L 291.472184 178.699034 
L 291.652647 178.699034 
L 291.833111 111.962483 
L 292.194039 162.014897 
L 292.374503 128.646621 
L 292.554967 136.98869 
L 292.735431 120.304552 
L 292.915895 153.672828 
L 293.096359 162.014897 
L 293.276822 128.646621 
L 293.457286 120.304552 
L 293.63775 120.304552 
L 293.998678 178.699034 
L 294.179142 162.014897 
L 294.359606 178.699034 
L 294.54007 111.962483 
L 294.720534 245.435586 
L 294.900998 111.962483 
L 295.081461 212.06731 
L 295.261925 170.356966 
L 295.442389 187.041103 
L 295.622853 153.672828 
L 295.803317 145.330759 
L 296.164245 162.014897 
L 296.344709 128.646621 
L 296.8861 178.699034 
L 297.066564 170.356966 
L 297.427492 103.620414 
L 297.607956 128.646621 
L 297.78842 111.962483 
L 297.968884 128.646621 
L 298.149348 178.699034 
L 298.329812 128.646621 
L 298.510275 136.98869 
L 298.690739 153.672828 
L 298.871203 153.672828 
L 299.051667 120.304552 
L 299.232131 128.646621 
L 299.412595 153.672828 
L 299.593059 212.06731 
L 299.773523 128.646621 
L 299.953987 128.646621 
L 300.13445 203.725241 
L 300.314914 178.699034 
L 300.495378 136.98869 
L 300.675842 178.699034 
L 300.856306 162.014897 
L 301.03677 170.356966 
L 301.217234 103.620414 
L 301.397698 245.435586 
L 301.578162 145.330759 
L 301.758625 170.356966 
L 301.939089 136.98869 
L 302.119553 178.699034 
L 302.660945 128.646621 
L 302.841409 178.699034 
L 303.202337 178.699034 
L 303.382801 195.383172 
L 303.563264 136.98869 
L 303.743728 120.304552 
L 303.924192 136.98869 
L 304.104656 195.383172 
L 304.28512 128.646621 
L 304.465584 212.06731 
L 304.646048 178.699034 
L 305.006976 178.699034 
L 305.187439 212.06731 
L 305.367903 128.646621 
L 305.548367 187.041103 
L 305.909295 111.962483 
L 306.089759 212.06731 
L 306.270223 145.330759 
L 306.450687 178.699034 
L 306.631151 187.041103 
L 306.811615 178.699034 
L 306.992078 153.672828 
L 307.172542 145.330759 
L 307.353006 220.409379 
L 307.53347 145.330759 
L 307.713934 120.304552 
L 307.894398 153.672828 
L 308.255326 153.672828 
L 308.43579 145.330759 
L 308.796717 178.699034 
L 308.977181 128.646621 
L 309.157645 162.014897 
L 309.338109 170.356966 
L 309.518573 153.672828 
L 309.699037 162.014897 
L 309.879501 178.699034 
L 310.059965 145.330759 
L 310.240429 170.356966 
L 310.420892 162.014897 
L 310.601356 170.356966 
L 310.962284 145.330759 
L 311.142748 203.725241 
L 311.323212 136.98869 
L 311.503676 120.304552 
L 311.68414 162.014897 
L 311.864604 136.98869 
L 312.225531 120.304552 
L 312.405995 145.330759 
L 312.586459 212.06731 
L 312.766923 195.383172 
L 312.947387 153.672828 
L 313.127851 162.014897 
L 313.308315 145.330759 
L 313.488779 153.672828 
L 313.669243 120.304552 
L 313.849706 145.330759 
L 314.03017 111.962483 
L 314.210634 153.672828 
L 314.391098 162.014897 
L 314.571562 153.672828 
L 314.752026 162.014897 
L 314.93249 111.962483 
L 315.112954 212.06731 
L 315.293418 153.672828 
L 315.473881 162.014897 
L 315.654345 195.383172 
L 315.834809 162.014897 
L 316.015273 187.041103 
L 316.376201 145.330759 
L 316.556665 153.672828 
L 316.737129 187.041103 
L 316.917593 145.330759 
L 317.098056 136.98869 
L 317.27852 120.304552 
L 317.639448 153.672828 
L 317.819912 145.330759 
L 318.000376 187.041103 
L 318.361304 128.646621 
L 318.541768 162.014897 
L 318.722232 136.98869 
L 318.902695 162.014897 
L 319.083159 153.672828 
L 319.263623 203.725241 
L 319.444087 145.330759 
L 319.624551 162.014897 
L 319.805015 145.330759 
L 319.985479 178.699034 
L 320.165943 170.356966 
L 320.346407 145.330759 
L 320.52687 136.98869 
L 320.707334 178.699034 
L 321.068262 153.672828 
L 321.248726 162.014897 
L 321.42919 145.330759 
L 321.790118 145.330759 
L 321.970582 170.356966 
L 322.151046 111.962483 
L 322.511973 153.672828 
L 322.692437 128.646621 
L 322.872901 153.672828 
L 323.053365 145.330759 
L 323.233829 145.330759 
L 323.414293 187.041103 
L 323.594757 111.962483 
L 323.775221 178.699034 
L 323.955684 178.699034 
L 324.136148 120.304552 
L 324.316612 128.646621 
L 324.497076 153.672828 
L 324.67754 136.98869 
L 324.858004 136.98869 
L 325.218932 162.014897 
L 325.399396 120.304552 
L 325.57986 203.725241 
L 325.760323 128.646621 
L 325.940787 187.041103 
L 326.121251 128.646621 
L 326.301715 187.041103 
L 326.482179 195.383172 
L 327.023571 120.304552 
L 327.564962 170.356966 
L 327.745426 120.304552 
L 327.92589 111.962483 
L 328.286818 170.356966 
L 328.467282 162.014897 
L 328.647746 170.356966 
L 328.82821 136.98869 
L 329.008674 145.330759 
L 329.189137 145.330759 
L 329.369601 228.751448 
L 329.730529 120.304552 
L 329.910993 153.672828 
L 330.091457 111.962483 
L 330.271921 120.304552 
L 330.452385 170.356966 
L 330.632849 162.014897 
L 330.813312 86.936276 
L 330.993776 120.304552 
L 331.17424 103.620414 
L 331.354704 111.962483 
L 331.535168 187.041103 
L 331.715632 153.672828 
L 331.896096 153.672828 
L 332.07656 187.041103 
L 332.257024 136.98869 
L 332.437487 162.014897 
L 332.617951 153.672828 
L 332.798415 111.962483 
L 332.978879 128.646621 
L 333.159343 128.646621 
L 333.339807 195.383172 
L 333.520271 128.646621 
L 333.700735 153.672828 
L 333.881199 162.014897 
L 334.061663 136.98869 
L 334.242126 128.646621 
L 334.42259 187.041103 
L 334.603054 145.330759 
L 334.783518 170.356966 
L 334.963982 128.646621 
L 335.144446 145.330759 
L 335.32491 103.620414 
L 335.505374 212.06731 
L 335.866301 136.98869 
L 336.046765 153.672828 
L 336.227229 228.751448 
L 336.588157 170.356966 
L 336.768621 212.06731 
L 336.949085 136.98869 
L 337.129549 153.672828 
L 337.310013 95.278345 
L 337.490477 128.646621 
L 337.67094 120.304552 
L 337.851404 178.699034 
L 338.031868 170.356966 
L 338.392796 145.330759 
L 338.57326 187.041103 
L 338.753724 153.672828 
L 338.934188 153.672828 
L 339.114652 111.962483 
L 339.475579 187.041103 
L 339.656043 120.304552 
L 339.836507 170.356966 
L 340.016971 145.330759 
L 340.197435 153.672828 
L 340.377899 170.356966 
L 340.558363 128.646621 
L 340.738827 145.330759 
L 340.919291 95.278345 
L 341.099754 145.330759 
L 341.280218 145.330759 
L 341.641146 203.725241 
L 342.002074 95.278345 
L 342.182538 120.304552 
L 342.363002 170.356966 
L 342.543466 136.98869 
L 342.723929 136.98869 
L 342.904393 212.06731 
L 343.265321 145.330759 
L 343.445785 153.672828 
L 343.626249 187.041103 
L 343.987177 128.646621 
L 344.167641 103.620414 
L 344.348105 103.620414 
L 344.528568 128.646621 
L 344.709032 103.620414 
L 344.889496 145.330759 
L 345.06996 145.330759 
L 345.250424 170.356966 
L 345.430888 103.620414 
L 345.611352 195.383172 
L 345.97228 178.699034 
L 346.152743 153.672828 
L 346.333207 145.330759 
L 346.513671 203.725241 
L 346.874599 153.672828 
L 347.055063 195.383172 
L 347.596455 78.594207 
L 347.776918 187.041103 
L 347.957382 153.672828 
L 348.137846 170.356966 
L 348.31831 145.330759 
L 348.498774 178.699034 
L 348.859702 136.98869 
L 349.040166 170.356966 
L 349.22063 170.356966 
L 349.401094 145.330759 
L 349.581557 170.356966 
L 349.762021 120.304552 
L 350.122949 203.725241 
L 350.483877 111.962483 
L 350.664341 153.672828 
L 350.844805 228.751448 
L 351.025269 128.646621 
L 351.205732 145.330759 
L 351.386196 203.725241 
L 351.56666 153.672828 
L 351.747124 170.356966 
L 351.927588 212.06731 
L 352.288516 136.98869 
L 352.46898 162.014897 
L 352.829908 136.98869 
L 353.010371 153.672828 
L 353.190835 136.98869 
L 353.551763 136.98869 
L 353.732227 145.330759 
L 353.912691 103.620414 
L 354.093155 170.356966 
L 354.273619 153.672828 
L 354.454083 212.06731 
L 354.81501 120.304552 
L 354.995474 203.725241 
L 355.175938 178.699034 
L 355.356402 120.304552 
L 355.536866 128.646621 
L 355.71733 178.699034 
L 355.897794 178.699034 
L 356.078258 120.304552 
L 356.439185 136.98869 
L 356.619649 111.962483 
L 356.800113 153.672828 
L 356.980577 136.98869 
L 357.161041 103.620414 
L 357.341505 145.330759 
L 357.521969 145.330759 
L 357.702433 170.356966 
L 357.882897 162.014897 
L 358.06336 145.330759 
L 358.243824 111.962483 
L 358.424288 178.699034 
L 358.604752 128.646621 
L 358.785216 187.041103 
L 358.96568 111.962483 
L 359.146144 153.672828 
L 359.326608 153.672828 
L 359.507072 136.98869 
L 359.687535 136.98869 
L 359.867999 128.646621 
L 360.048463 136.98869 
L 360.228927 203.725241 
L 360.409391 153.672828 
L 360.950783 128.646621 
L 361.131247 195.383172 
L 361.311711 162.014897 
L 361.492174 153.672828 
L 361.672638 128.646621 
L 362.033566 145.330759 
L 362.21403 170.356966 
L 362.394494 237.093517 
L 362.574958 145.330759 
L 362.755422 136.98869 
L 362.935886 162.014897 
L 363.116349 136.98869 
L 363.296813 187.041103 
L 363.657741 153.672828 
L 363.838205 203.725241 
L 364.018669 187.041103 
L 364.199133 103.620414 
L 364.379597 162.014897 
L 364.560061 178.699034 
L 364.740525 95.278345 
L 364.920988 145.330759 
L 365.101452 128.646621 
L 365.281916 170.356966 
L 365.46238 253.777655 
L 365.642844 136.98869 
L 365.823308 111.962483 
L 366.003772 187.041103 
L 366.184236 187.041103 
L 366.3647 111.962483 
L 366.545163 111.962483 
L 366.725627 103.620414 
L 366.906091 128.646621 
L 367.086555 120.304552 
L 367.267019 162.014897 
L 367.447483 153.672828 
L 367.627947 136.98869 
L 367.808411 178.699034 
L 368.530266 120.304552 
L 368.71073 111.962483 
L 368.891194 195.383172 
L 369.071658 136.98869 
L 369.252122 136.98869 
L 369.432586 162.014897 
L 369.61305 136.98869 
L 369.973977 120.304552 
L 370.154441 170.356966 
L 370.334905 103.620414 
L 370.515369 220.409379 
L 370.695833 111.962483 
L 370.876297 128.646621 
L 371.237225 128.646621 
L 371.417689 136.98869 
L 371.598153 153.672828 
L 371.778616 145.330759 
L 371.95908 228.751448 
L 372.139544 103.620414 
L 372.320008 128.646621 
L 372.500472 170.356966 
L 372.8614 111.962483 
L 373.041864 220.409379 
L 373.222328 162.014897 
L 373.402791 162.014897 
L 373.583255 145.330759 
L 373.763719 145.330759 
L 373.944183 120.304552 
L 374.124647 253.777655 
L 374.305111 136.98869 
L 374.485575 178.699034 
L 374.666039 162.014897 
L 374.846503 237.093517 
L 375.026966 136.98869 
L 375.20743 153.672828 
L 375.387894 153.672828 
L 375.568358 120.304552 
L 375.929286 120.304552 
L 376.10975 245.435586 
L 376.290214 136.98869 
L 376.470678 195.383172 
L 376.651142 136.98869 
L 376.831605 120.304552 
L 377.012069 128.646621 
L 377.192533 86.936276 
L 377.553461 136.98869 
L 377.733925 111.962483 
L 378.094853 237.093517 
L 378.275317 195.383172 
L 378.45578 111.962483 
L 378.636244 153.672828 
L 378.816708 136.98869 
L 379.177636 153.672828 
L 379.3581 128.646621 
L 379.538564 195.383172 
L 379.719028 187.041103 
L 379.899492 195.383172 
L 380.079956 162.014897 
L 380.260419 245.435586 
L 380.440883 145.330759 
L 380.621347 136.98869 
L 380.801811 120.304552 
L 380.982275 136.98869 
L 381.162739 170.356966 
L 381.343203 145.330759 
L 381.523667 220.409379 
L 381.704131 153.672828 
L 381.884594 128.646621 
L 382.065058 128.646621 
L 382.245522 111.962483 
L 382.425986 195.383172 
L 382.60645 136.98869 
L 382.786914 136.98869 
L 382.967378 128.646621 
L 383.147842 153.672828 
L 383.50877 95.278345 
L 383.689233 187.041103 
L 383.869697 120.304552 
L 384.230625 162.014897 
L 384.411089 178.699034 
L 384.591553 145.330759 
L 384.772017 178.699034 
L 384.952481 136.98869 
L 385.132945 136.98869 
L 385.313408 212.06731 
L 385.493872 145.330759 
L 385.674336 170.356966 
L 385.8548 145.330759 
L 386.035264 145.330759 
L 386.215728 178.699034 
L 386.576656 195.383172 
L 386.75712 136.98869 
L 386.937584 170.356966 
L 387.118047 162.014897 
L 387.298511 162.014897 
L 387.478975 128.646621 
L 387.659439 153.672828 
L 387.839903 162.014897 
L 388.200831 128.646621 
L 388.381295 195.383172 
L 388.561759 86.936276 
L 388.742222 178.699034 
L 388.922686 120.304552 
L 389.10315 136.98869 
L 389.283614 120.304552 
L 389.464078 178.699034 
L 389.644542 187.041103 
L 389.825006 136.98869 
L 390.185934 187.041103 
L 390.366397 128.646621 
L 390.546861 162.014897 
L 390.907789 145.330759 
L 391.088253 128.646621 
L 391.268717 145.330759 
L 391.449181 178.699034 
L 391.629645 187.041103 
L 391.990573 145.330759 
L 392.171036 86.936276 
L 392.3515 162.014897 
L 392.531964 111.962483 
L 392.712428 195.383172 
L 392.892892 145.330759 
L 393.073356 145.330759 
L 393.25382 170.356966 
L 393.434284 120.304552 
L 393.614748 178.699034 
L 393.795211 145.330759 
L 393.975675 178.699034 
L 394.156139 128.646621 
L 394.336603 136.98869 
L 394.517067 153.672828 
L 394.697531 103.620414 
L 394.877995 153.672828 
L 395.058459 145.330759 
L 395.238923 145.330759 
L 395.419387 170.356966 
L 395.59985 120.304552 
L 395.960778 178.699034 
L 396.321706 145.330759 
L 396.682634 145.330759 
L 396.863098 170.356966 
L 397.043562 178.699034 
L 397.224025 153.672828 
L 397.404489 145.330759 
L 397.584953 128.646621 
L 397.945881 237.093517 
L 398.306809 120.304552 
L 398.487273 136.98869 
L 398.487273 136.98869 
" style="fill:none;stroke:#1f77b4;stroke-linecap:square;stroke-width:1.5;"/>
   </g>
   <g id="patch_3">
    <path d="M 57.6 307.584 
L 57.6 41.472 
" style="fill:none;stroke:#000000;stroke-linecap:square;stroke-linejoin:miter;stroke-width:0.8;"/>
   </g>
   <g id="patch_4">
    <path d="M 414.72 307.584 
L 414.72 41.472 
" style="fill:none;stroke:#000000;stroke-linecap:square;stroke-linejoin:miter;stroke-width:0.8;"/>
   </g>
   <g id="patch_5">
    <path d="M 57.6 307.584 
L 414.72 307.584 
" style="fill:none;stroke:#000000;stroke-linecap:square;stroke-linejoin:miter;stroke-width:0.8;"/>
   </g>
   <g id="patch_6">
    <path d="M 57.6 41.472 
L 414.72 41.472 
" style="fill:none;stroke:#000000;stroke-linecap:square;stroke-linejoin:miter;stroke-width:0.8;"/>
   </g>
  </g>
 </g>
 <defs>
  <clipPath id="pd0c383e60d">
   <rect height="266.112" width="357.12" x="57.6" y="41.472"/>
  </clipPath>
 </defs>
</svg>
